# xmcd CD database file
#
# Track frame offsets:
#	150
#	12763
#	26769
#	40507
#	53935
#	65052
#	76690
#	91877
#	107373
#	121570
#	135382
#	149722
#	163539
#	176424
#
# Disc length: 2549 seconds
#
# Revision: 0
# Processed by: cddbd v1.5.2PL0 Copyright (c) Steve Scherf et al.
# Submitted via: CDex 1.70beta2
#
DISCID=a609f30e
DTITLE=Sarah Vaughan - Edição Limitada
DYEAR=2005
DGENRE=Jazz
TTITLE0=What a Diference a Day Makes
TTITLE1=September Song
TTITLE2=Ain't Misbehavin
TTITLE3=Love Me or Leave me
TTITLE4=No Smokes Blues
TTITLE5=Gentleman Friend
TTITLE6=Lover Man
TTITLE7=Come Rain or Come Shine
TTITLE8=Tenderly
TTITLE9=You Go to My Head
TTITLE10=Penthouse Serenade (When You're Alone)
TTITLE11=What More Can a Woman Do
TTITLE12=Can't Get Out of This Mood
TTITLE13=Black Coffee
EXTD=YEAR: 2005
EXTT0=
EXTT1=
EXTT2=
EXTT3=
EXTT4=
EXTT5=
EXTT6=
EXTT7=
EXTT8=
EXTT9=
EXTT10=
EXTT11=
EXTT12=
EXTT13=
PLAYORDER=
